<svg width="248" height="58" viewBox="0 0 248 58" fill="none" xmlns="http://www.w3.org/2000/svg">
<path d="M162.485 23V10.2031H166.669C168.058 10.2031 169.101 10.4902 169.798 11.0645C170.501 11.6387 170.853 12.4883 170.853 13.6133C170.853 14.2109 170.683 14.7412 170.343 15.2041C170.003 15.6611 169.54 16.0156 168.954 16.2676C169.646 16.4609 170.19 16.8301 170.589 17.375C170.993 17.9141 171.195 18.5586 171.195 19.3086C171.195 20.457 170.823 21.3594 170.079 22.0156C169.335 22.6719 168.283 23 166.924 23H162.485ZM164.173 17.0146V21.6201H166.959C167.744 21.6201 168.362 21.418 168.813 21.0137C169.271 20.6035 169.499 20.041 169.499 19.3262C169.499 17.7852 168.661 17.0146 166.985 17.0146H164.173ZM164.173 15.6611H166.722C167.46 15.6611 168.049 15.4766 168.488 15.1074C168.934 14.7383 169.156 14.2373 169.156 13.6045C169.156 12.9014 168.951 12.3916 168.541 12.0752C168.131 11.7529 167.507 11.5918 166.669 11.5918H164.173V15.6611ZM181.769 10.2031H183.456V23H181.769V13.1387L175.467 23H173.771V10.2031H175.467V20.0645L181.769 10.2031ZM193.098 13.6396C193.098 12.96 192.849 12.4209 192.351 12.0225C191.858 11.6182 191.164 11.416 190.268 11.416C189.518 11.416 188.888 11.624 188.378 12.04C187.874 12.4502 187.622 12.96 187.622 13.5693H185.935C185.935 12.8896 186.119 12.2803 186.488 11.7412C186.863 11.2021 187.385 10.7832 188.053 10.4844C188.721 10.1797 189.459 10.0273 190.268 10.0273C191.697 10.0273 192.808 10.3496 193.599 10.9941C194.39 11.6328 194.785 12.5234 194.785 13.666C194.785 14.2578 194.604 14.7969 194.24 15.2832C193.877 15.7695 193.37 16.1533 192.72 16.4346C194.226 16.9385 194.979 17.9375 194.979 19.4316C194.979 20.5801 194.551 21.4912 193.695 22.165C192.84 22.8389 191.697 23.1758 190.268 23.1758C189.418 23.1758 188.645 23.0264 187.947 22.7275C187.256 22.4229 186.717 21.9922 186.33 21.4355C185.943 20.8789 185.75 20.2168 185.75 19.4492H187.438C187.438 20.123 187.704 20.6855 188.237 21.1367C188.771 21.582 189.447 21.8047 190.268 21.8047C191.188 21.8047 191.92 21.5908 192.465 21.1631C193.016 20.7354 193.291 20.1699 193.291 19.4668C193.291 17.9668 192.362 17.2021 190.505 17.1729H188.923V15.7842H190.496C191.352 15.7666 191.999 15.5732 192.438 15.2041C192.878 14.835 193.098 14.3135 193.098 13.6396ZM207.063 17.0146C207.063 18.2686 206.853 19.3643 206.431 20.3018C206.009 21.2334 205.411 21.9453 204.638 22.4375C203.864 22.9297 202.962 23.1758 201.931 23.1758C200.923 23.1758 200.029 22.9297 199.25 22.4375C198.471 21.9395 197.864 21.2334 197.431 20.3193C197.003 19.3994 196.783 18.3359 196.771 17.1289V16.2061C196.771 14.9756 196.985 13.8887 197.413 12.9453C197.841 12.002 198.444 11.2812 199.224 10.7832C200.009 10.2793 200.905 10.0273 201.913 10.0273C202.938 10.0273 203.841 10.2764 204.62 10.7744C205.405 11.2666 206.009 11.9844 206.431 12.9277C206.853 13.8652 207.063 14.958 207.063 16.2061V17.0146ZM205.385 16.1885C205.385 14.6709 205.08 13.5078 204.471 12.6992C203.861 11.8848 203.009 11.4775 201.913 11.4775C200.847 11.4775 200.006 11.8848 199.391 12.6992C198.781 13.5078 198.468 14.6328 198.45 16.0742V17.0146C198.45 18.4854 198.758 19.6426 199.373 20.4863C199.994 21.3242 200.847 21.7432 201.931 21.7432C203.021 21.7432 203.864 21.3477 204.462 20.5566C205.06 19.7598 205.367 18.6201 205.385 17.1377V16.1885ZM209.595 23V10.2031H213.778C215.167 10.2031 216.21 10.4902 216.907 11.0645C217.61 11.6387 217.962 12.4883 217.962 13.6133C217.962 14.2109 217.792 14.7412 217.452 15.2041C217.112 15.6611 216.649 16.0156 216.063 16.2676C216.755 16.4609 217.3 16.8301 217.698 17.375C218.103 17.9141 218.305 18.5586 218.305 19.3086C218.305 20.457 217.933 21.3594 217.188 22.0156C216.444 22.6719 215.393 23 214.033 23H209.595ZM211.282 17.0146V21.6201H214.068C214.854 21.6201 215.472 21.418 215.923 21.0137C216.38 20.6035 216.608 20.041 216.608 19.3262C216.608 17.7852 215.771 17.0146 214.095 17.0146H211.282ZM211.282 15.6611H213.831C214.569 15.6611 215.158 15.4766 215.598 15.1074C216.043 14.7383 216.266 14.2373 216.266 13.6045C216.266 12.9014 216.061 12.3916 215.65 12.0752C215.24 11.7529 214.616 11.5918 213.778 11.5918H211.282V15.6611ZM222.576 15.4238H225.758C227.094 15.4414 228.137 15.7842 228.887 16.4521C229.637 17.1201 230.012 18.0283 230.012 19.1768C230.012 20.3311 229.634 21.251 228.878 21.9365C228.122 22.6221 227.091 22.9766 225.784 23H220.889V10.2031H222.576V15.4238ZM222.576 16.8125V21.6201H225.661C226.499 21.6201 227.149 21.3975 227.612 20.9521C228.081 20.5068 228.315 19.9092 228.315 19.1592C228.315 18.4385 228.09 17.8701 227.639 17.4541C227.193 17.0381 226.558 16.8242 225.731 16.8125H222.576ZM233.246 23H231.559V10.2031H233.246V23ZM244.452 10.2031H246.14V23H244.452V13.1387L238.15 23H236.454V10.2031H238.15V20.0645L244.452 10.2031ZM243.978 7.02148C243.978 7.73047 243.734 8.30176 243.248 8.73535C242.768 9.16309 242.135 9.37695 241.35 9.37695C240.564 9.37695 239.929 9.16016 239.442 8.72656C238.956 8.29297 238.713 7.72461 238.713 7.02148H240.04C240.04 7.43164 240.151 7.75391 240.374 7.98828C240.597 8.2168 240.922 8.33105 241.35 8.33105C241.76 8.33105 242.079 8.2168 242.308 7.98828C242.542 7.75977 242.659 7.4375 242.659 7.02148H243.978ZM162.538 34.2031H164.234V45.6201H170.545V34.2031H172.232V45.585H173.577L173.419 50.085H171.898V47H162.538V34.2031ZM182.885 41.085H177.339V45.6201H183.781V47H175.651V34.2031H183.693V35.5918H177.339V39.7051H182.885V41.085ZM195.717 47H194.021V41.085H187.569V47H185.882V34.2031H187.569V39.7051H194.021V34.2031H195.717V47ZM207.292 35.5918H203.179V47H201.5V35.5918H197.396V34.2031H207.292V35.5918ZM210.878 41.9902V47H209.19V34.2031H213.91C215.311 34.2031 216.406 34.5605 217.197 35.2754C217.994 35.9902 218.393 36.9365 218.393 38.1143C218.393 39.3564 218.003 40.3145 217.224 40.9883C216.45 41.6562 215.34 41.9902 213.893 41.9902H210.878ZM210.878 40.6104H213.91C214.812 40.6104 215.504 40.3994 215.984 39.9775C216.465 39.5498 216.705 38.9346 216.705 38.1318C216.705 37.3701 216.465 36.7607 215.984 36.3037C215.504 35.8467 214.845 35.6094 214.007 35.5918H210.878V40.6104Z" fill="#FFA800"/>
<path d="M12.7422 28.6543L18.543 9.40625H24.4141L15.502 35H10L1.12305 9.40625H6.97656L12.7422 28.6543ZM32.4473 35H27.1738V9.40625H32.4473V35ZM50.623 28.2852C50.623 27.2891 50.2715 26.5273 49.5684 26C48.8652 25.4609 47.5996 24.8984 45.7715 24.3125C43.9434 23.7148 42.4961 23.1289 41.4297 22.5547C38.5234 20.9844 37.0703 18.8691 37.0703 16.209C37.0703 14.8262 37.457 13.5957 38.2305 12.5176C39.0156 11.4277 40.1348 10.5781 41.5879 9.96875C43.0527 9.35937 44.6934 9.05469 46.5098 9.05469C48.3379 9.05469 49.9668 9.38867 51.3965 10.0566C52.8262 10.7129 53.9336 11.6445 54.7188 12.8516C55.5156 14.0586 55.9141 15.4297 55.9141 16.9648H50.6406C50.6406 15.793 50.2715 14.8848 49.5332 14.2402C48.7949 13.584 47.7578 13.2559 46.4219 13.2559C45.1328 13.2559 44.1309 13.5313 43.416 14.082C42.7012 14.6211 42.3438 15.3359 42.3438 16.2266C42.3438 17.0586 42.7598 17.7559 43.5918 18.3184C44.4355 18.8809 45.6719 19.4082 47.3008 19.9004C50.3008 20.8027 52.4863 21.9219 53.8574 23.2578C55.2285 24.5938 55.9141 26.2578 55.9141 28.25C55.9141 30.4648 55.0762 32.2051 53.4004 33.4707C51.7246 34.7246 49.4688 35.3516 46.6328 35.3516C44.6641 35.3516 42.8711 34.9941 41.2539 34.2793C39.6367 33.5527 38.4004 32.5625 37.5449 31.3086C36.7012 30.0547 36.2793 28.6016 36.2793 26.9492H41.5703C41.5703 29.7734 43.2578 31.1855 46.6328 31.1855C47.8867 31.1855 48.8652 30.9336 49.5684 30.4297C50.2715 29.9141 50.623 29.1992 50.623 28.2852ZM73.9492 29.7266H64.7031L62.9453 35H57.3379L66.8652 9.40625H71.752L81.332 35H75.7246L73.9492 29.7266ZM66.127 25.4551H72.5254L69.3086 15.875L66.127 25.4551Z" fill="#FFA800"/>
<path d="M27.584 41.4688H28.709V50H27.584V43.4258L23.3828 50H22.252V41.4688H23.3828V48.043L27.584 41.4688ZM37.3164 50H36.1855V46.0566H31.8848V50H30.7598V41.4688H31.8848V45.1367H36.1855V41.4688H37.3164V50ZM45.0332 42.3945H42.291V50H41.1719V42.3945H38.4355V41.4688H45.0332V42.3945ZM51.1211 46.0566H47.4238V49.0801H51.7188V50H46.2988V41.4688H51.6602V42.3945H47.4238V45.1367H51.1211V46.0566ZM58.4102 42.3945H54.2969V50H53.166V41.4688H58.4102V42.3945ZM60.9238 46.6602V50H59.7988V41.4688H62.9453C63.8789 41.4688 64.6094 41.707 65.1367 42.1836C65.668 42.6602 65.9336 43.291 65.9336 44.0762C65.9336 44.9043 65.6738 45.543 65.1543 45.9922C64.6387 46.4375 63.8984 46.6602 62.9336 46.6602H60.9238ZM60.9238 45.7402H62.9453C63.5469 45.7402 64.0078 45.5996 64.3281 45.3184C64.6484 45.0332 64.8086 44.623 64.8086 44.0879C64.8086 43.5801 64.6484 43.1738 64.3281 42.8691C64.0078 42.5645 63.5684 42.4062 63.0098 42.3945H60.9238V45.7402ZM71.2715 47.7734H67.6973L66.8945 50H65.7344L68.9922 41.4688H69.9766L73.2402 50H72.0859L71.2715 47.7734ZM68.0371 46.8477H70.9375L69.4844 42.8574L68.0371 46.8477ZM80.9453 41.4688V50H79.8203V42.3945H76.7617L76.6094 45.7754C76.5508 46.9082 76.4336 47.7598 76.2578 48.3301C76.0859 48.9004 75.832 49.3203 75.4961 49.5898C75.1602 49.8555 74.7109 49.9922 74.1484 50H73.7793V49.0801L74.0137 49.0684C74.377 49.041 74.6562 48.9238 74.8516 48.7168C75.0469 48.5059 75.1953 48.1719 75.2969 47.7148C75.3984 47.2578 75.4707 46.5547 75.5137 45.6055L75.6895 41.4688H80.9453Z" fill="black"/>
<mask id="mask0" mask-type="alpha" maskUnits="userSpaceOnUse" x="87" y="31" width="47" height="26">
<path d="M95.2118 38.5769C95.2118 38.9217 89.7373 40.7321 87 41.5942V48.4907C88.2881 50.5022 90.961 54.5252 91.3474 54.5252H99.5592L113.568 52.801L119.847 56.6804L126.127 53.6631L125.161 48.4907L126.61 45.4735C128.381 44.324 132.213 41.8528 133.373 41.1631C134.822 40.301 133.373 35.9907 132.889 34.6976C132.406 33.4045 131.923 33.4045 131.44 32.9735C130.957 32.5424 121.779 32.9735 120.813 32.9735C120.04 32.9735 117.593 34.1229 116.466 34.6976H113.568C111.313 34.1229 106.612 32.9735 105.839 32.9735C105.066 32.9735 102.296 32.1114 101.008 31.6804L95.2118 34.6976V38.5769Z" fill="#C4C4C4"/>
</mask>
<g mask="url(#mask0)">
<path d="M149 27.2016C149 40.5219 139.175 51.5904 126.391 53.542C126.499 52.9508 126.529 52.3386 126.457 51.7182C126.457 51.7182 126.38 51.0654 126.281 50.2111C130.819 49.4378 134.917 47.3552 138.165 44.3602C137.97 44.198 137.776 43.9877 137.584 43.7085C136.722 42.4499 137.85 41.201 137.85 40.1003C137.85 39.0207 135.673 39.1095 135.593 38.3944C135.318 35.9181 137.113 35.8843 138.07 34.9275C139.027 33.9707 137.124 31.7954 135.895 31.9358C134.658 32.0679 131.175 31.3644 131.494 28.6999C131.881 25.4547 127.359 25.741 126.712 24.2262C125.767 22.0183 127.337 19.3102 129.384 18.6949C132.283 17.8235 135.139 15.4583 134.916 12.8253C134.663 9.84337 133.313 7.15405 131.09 5.55649C128.777 4.6193 126.283 4.03977 123.673 3.89354C121.344 3.98566 119.296 4.5033 119.389 5.56966C119.618 8.18289 127.049 8.86164 125.802 11.3045C125.152 12.5779 120.273 14.3752 121.184 16.2705C121.777 17.503 123.236 16.4467 122.691 18.8128C122.44 19.9015 121.486 21.9472 120.018 22.0792C118.516 22.2194 117.266 18.2422 113.18 18.1118C111.248 18.05 108.527 21.1259 110.838 23.3081C112.237 24.6296 114.863 21.7198 115.638 23.9928C116.184 25.5945 115.564 28.9593 118.113 30.3655C119.043 30.8781 120.467 31.325 121.876 32.0409C119.785 32.4679 117.216 33.2648 114.181 34.4335L111.625 33.759C112.695 32.8681 114.434 32.241 113.997 30.2944C113.354 27.4345 108.388 28.5131 104.965 25.0898C103.914 24.0397 101.674 20.5528 101.684 16.3635C99.9771 19.6049 99.0059 23.2911 99.0059 27.2017C99.0059 28.4054 99.0977 29.5881 99.2743 30.7433C99.234 30.7426 99.1942 30.7356 99.154 30.7356C98.0759 30.7356 97.0185 30.9621 96.0386 31.3904C95.8221 30.0252 95.7066 28.6269 95.7066 27.2018C95.7066 12.5089 107.66 0.554749 122.353 0.554749C137.046 0.554559 149 12.5087 149 27.2016ZM129.012 34.9683L122.504 37.9597L122.605 36.5417L126.821 34.6385C126.219 34.5954 125.596 34.579 124.974 34.579C122.645 34.579 118.709 35.7582 114.356 37.486L100.396 33.8036C99.0914 33.4594 97.7024 33.6714 96.5597 34.3893L95.8733 34.8205C95.2032 35.2415 95.1961 36.2157 95.86 36.6466L104.252 42.091C102.247 43.1162 100.345 44.1575 98.6685 45.1519L94.3623 42.8721C93.6589 42.4997 92.8273 42.4556 92.0885 42.7514L91.6809 42.9148C91.0731 43.1581 90.8184 43.881 91.1397 44.4516L93.5119 48.6663L93.5129 48.6659C92.6179 49.436 92.1079 50.0745 92.1079 50.5164C92.1079 51.8391 93.7355 52.1696 95.1701 52.1696C97.7289 52.1696 131.521 44.4324 131.521 37.4227C131.521 36.0345 130.572 35.3402 129.012 34.9683ZM114.764 48.6541L122.2 46.0346C122.528 45.9192 122.878 46.1375 122.918 46.4825L123.57 52.0565C123.733 53.4493 122.984 54.7897 121.712 55.3809L121.015 55.705C120.579 55.9074 120.062 55.7989 119.745 55.4385L114.537 49.5229C114.284 49.2348 114.402 48.7817 114.764 48.6541Z" fill="#FFA800"/>
</g>
<mask id="mask1" mask-type="alpha" maskUnits="userSpaceOnUse" x="82" y="1" width="80" height="56">
<path d="M102 33.1804L91.5 34.1804L83 20.6804L95 12.6804L110 4.18036C123 -1.81964 157 6.38037 157 7.18037C157 7.98037 159.333 25.847 160.5 34.6804L149.5 46.6804L133.5 54.1804L124.5 55.6804V51.1804L125.5 48.1804L130.5 44.6804L134 40.1804L132.5 37.1804L130.5 34.6804L123.5 34.1804L117.5 36.1804L114 37.1804L111 36.1804L102 33.1804Z" fill="#C4C4C4" stroke="black"/>
</mask>
<g mask="url(#mask1)">
<path d="M149 28.7016C149 42.0219 139.175 53.0904 126.391 55.042C126.499 54.4508 126.529 53.8386 126.457 53.2182C126.457 53.2182 126.38 52.5654 126.281 51.7111C130.819 50.9378 134.917 48.8552 138.165 45.8602C137.97 45.698 137.776 45.4877 137.584 45.2085C136.722 43.9499 137.85 42.701 137.85 41.6003C137.85 40.5207 135.673 40.6095 135.593 39.8944C135.318 37.4181 137.113 37.3843 138.07 36.4275C139.027 35.4707 137.124 33.2954 135.895 33.4358C134.658 33.5679 131.175 32.8644 131.494 30.1999C131.881 26.9547 127.359 27.241 126.712 25.7262C125.767 23.5183 127.337 20.8102 129.384 20.1949C132.283 19.3235 135.139 16.9583 134.916 14.3253C134.663 11.3434 133.313 8.65405 131.09 7.05649C128.777 6.1193 126.283 5.53977 123.673 5.39354C121.344 5.48566 119.296 6.0033 119.389 7.06966C119.618 9.68289 127.049 10.3616 125.802 12.8045C125.152 14.0779 120.273 15.8752 121.184 17.7705C121.777 19.003 123.236 17.9467 122.691 20.3128C122.44 21.4015 121.486 23.4472 120.018 23.5792C118.516 23.7194 117.266 19.7422 113.18 19.6118C111.248 19.55 108.527 22.6259 110.838 24.8081C112.237 26.1296 114.863 23.2198 115.638 25.4928C116.184 27.0945 115.564 30.4593 118.113 31.8655C119.043 32.3781 120.467 32.825 121.876 33.5409C119.785 33.9679 117.216 34.7648 114.181 35.9335L111.625 35.259C112.695 34.3681 114.434 33.741 113.997 31.7944C113.354 28.9345 108.388 30.0131 104.965 26.5898C103.914 25.5397 101.674 22.0528 101.684 17.8635C99.9771 21.1049 99.0059 24.7911 99.0059 28.7017C99.0059 29.9054 99.0977 31.0881 99.2743 32.2433C99.234 32.2426 99.1942 32.2356 99.154 32.2356C98.0759 32.2356 97.0185 32.4621 96.0386 32.8904C95.8221 31.5252 95.7066 30.1269 95.7066 28.7018C95.7066 14.0089 107.66 2.05475 122.353 2.05475C137.046 2.05456 149 14.0087 149 28.7016ZM129.012 36.4683L122.504 39.4597L122.605 38.0417L126.821 36.1385C126.219 36.0954 125.596 36.079 124.974 36.079C122.645 36.079 118.709 37.2582 114.356 38.986L100.396 35.3036C99.0914 34.9594 97.7024 35.1714 96.5597 35.8893L95.8733 36.3205C95.2032 36.7415 95.1961 37.7157 95.86 38.1466L104.252 43.591C102.247 44.6162 100.345 45.6575 98.6685 46.6519L94.3623 44.3721C93.6589 43.9997 92.8273 43.9556 92.0885 44.2514L91.6809 44.4148C91.0731 44.6581 90.8184 45.381 91.1397 45.9516L93.5119 50.1663L93.5129 50.1659C92.6179 50.936 92.1079 51.5745 92.1079 52.0164C92.1079 53.3391 93.7355 53.6696 95.1701 53.6696C97.7289 53.6696 131.521 45.9324 131.521 38.9227C131.521 37.5345 130.572 36.8402 129.012 36.4683ZM114.764 50.1541L122.2 47.5346C122.528 47.4192 122.878 47.6375 122.918 47.9825L123.57 53.5565C123.733 54.9493 122.984 56.2897 121.712 56.8809L121.015 57.205C120.579 57.4074 120.062 57.2989 119.745 56.9385L114.537 51.0229C114.284 50.7348 114.402 50.2817 114.764 50.1541Z" fill="#2D9CDB"/>
</g>
</svg>
