<svg width="58" height="58" viewBox="0 0 58 58" fill="none" xmlns="http://www.w3.org/2000/svg">
<g clip-path="url(#clip0)">
<mask id="mask0" mask-type="alpha" maskUnits="userSpaceOnUse" x="-4" y="31" width="48" height="26">
<path d="M4.2118 38.5769C4.2118 38.9217 -1.2627 40.7321 -4 41.5942V48.4907C-2.7119 50.5022 -0.0390032 54.5252 0.347397 54.5252H8.5592L22.568 52.801L28.847 56.6804L35.127 53.6631L34.161 48.4907L35.61 45.4735C37.381 44.324 41.213 41.8528 42.373 41.1631C43.822 40.301 42.373 35.9907 41.889 34.6976C41.406 33.4045 40.923 33.4045 40.44 32.9735C39.957 32.5424 30.779 32.9735 29.813 32.9735C29.04 32.9735 26.593 34.1229 25.466 34.6976H22.568C20.313 34.1229 15.612 32.9735 14.839 32.9735C14.066 32.9735 11.296 32.1114 10.008 31.6804L4.2118 34.6976V38.5769Z" fill="#C4C4C4"/>
</mask>
<g mask="url(#mask0)">
<path d="M58 27.2016C58 40.5219 48.175 51.5904 35.391 53.542C35.499 52.9508 35.529 52.3386 35.457 51.7182C35.457 51.7182 35.38 51.0654 35.281 50.2111C39.819 49.4378 43.917 47.3552 47.165 44.3602C46.97 44.198 46.776 43.9877 46.584 43.7085C45.722 42.4499 46.85 41.201 46.85 40.1003C46.85 39.0207 44.673 39.1095 44.593 38.3944C44.318 35.9181 46.113 35.8843 47.07 34.9275C48.027 33.9707 46.124 31.7954 44.895 31.9358C43.658 32.0679 40.175 31.3644 40.494 28.6999C40.881 25.4547 36.359 25.741 35.712 24.2262C34.767 22.0183 36.337 19.3102 38.384 18.6949C41.283 17.8235 44.139 15.4583 43.916 12.8253C43.663 9.84337 42.313 7.15405 40.09 5.55649C37.777 4.6193 35.283 4.03977 32.673 3.89354C30.344 3.98566 28.296 4.5033 28.389 5.56966C28.618 8.18289 36.049 8.86164 34.802 11.3045C34.152 12.5779 29.273 14.3752 30.184 16.2705C30.777 17.503 32.236 16.4467 31.691 18.8128C31.44 19.9015 30.486 21.9472 29.018 22.0792C27.516 22.2194 26.266 18.2422 22.18 18.1118C20.248 18.05 17.527 21.1259 19.838 23.3081C21.237 24.6296 23.863 21.7198 24.638 23.9928C25.184 25.5945 24.564 28.9593 27.113 30.3655C28.043 30.8781 29.467 31.325 30.876 32.0409C28.785 32.4679 26.216 33.2648 23.181 34.4335L20.625 33.759C21.695 32.8681 23.434 32.241 22.997 30.2944C22.354 27.4345 17.388 28.5131 13.965 25.0898C12.914 24.0397 10.674 20.5528 10.684 16.3635C8.97709 19.6049 8.00589 23.2911 8.00589 27.2017C8.00589 28.4054 8.09769 29.5881 8.27429 30.7433C8.23399 30.7426 8.19419 30.7356 8.15399 30.7356C7.07589 30.7356 6.01849 30.9621 5.03859 31.3904C4.82209 30.0252 4.70659 28.6269 4.70659 27.2018C4.70659 12.5089 16.66 0.554749 31.353 0.554749C46.046 0.554559 58 12.5087 58 27.2016ZM38.012 34.9683L31.504 37.9597L31.605 36.5417L35.821 34.6385C35.219 34.5954 34.596 34.579 33.974 34.579C31.645 34.579 27.709 35.7582 23.356 37.486L9.396 33.8036C8.0914 33.4594 6.70239 33.6714 5.55969 34.3893L4.87329 34.8205C4.20319 35.2415 4.19609 36.2157 4.85999 36.6466L13.252 42.091C11.247 43.1162 9.345 44.1575 7.6685 45.1519L3.36229 42.8721C2.65889 42.4997 1.82729 42.4556 1.08849 42.7514L0.680894 42.9148C0.0730938 43.1581 -0.181605 43.881 0.139695 44.4516L2.51189 48.6663L2.51289 48.6659C1.61789 49.436 1.1079 50.0745 1.1079 50.5164C1.1079 51.8391 2.73549 52.1696 4.17009 52.1696C6.72889 52.1696 40.521 44.4324 40.521 37.4227C40.521 36.0345 39.572 35.3402 38.012 34.9683ZM23.764 48.6541L31.2 46.0346C31.528 45.9192 31.878 46.1375 31.918 46.4825L32.57 52.0565C32.733 53.4493 31.984 54.7897 30.712 55.3809L30.015 55.705C29.579 55.9074 29.062 55.7989 28.745 55.4385L23.537 49.5229C23.284 49.2348 23.402 48.7817 23.764 48.6541Z" fill="#FFA800"/>
</g>
<mask id="mask1" mask-type="alpha" maskUnits="userSpaceOnUse" x="-9" y="1" width="80" height="56">
<path d="M11 33.1804L0.5 34.1804L-8 20.6804L4 12.6804L19 4.18036C32 -1.81964 66 6.38037 66 7.18037C66 7.98037 68.333 25.847 69.5 34.6804L58.5 46.6804L42.5 54.1804L33.5 55.6804V51.1804L34.5 48.1804L39.5 44.6804L43 40.1804L41.5 37.1804L39.5 34.6804L32.5 34.1804L26.5 36.1804L23 37.1804L20 36.1804L11 33.1804Z" fill="#C4C4C4" stroke="black"/>
</mask>
<g mask="url(#mask1)">
<path d="M58 28.7016C58 42.0219 48.175 53.0904 35.391 55.042C35.499 54.4508 35.529 53.8386 35.457 53.2182C35.457 53.2182 35.38 52.5654 35.281 51.7111C39.819 50.9378 43.917 48.8552 47.165 45.8602C46.97 45.698 46.776 45.4877 46.584 45.2085C45.722 43.9499 46.85 42.701 46.85 41.6003C46.85 40.5207 44.673 40.6095 44.593 39.8944C44.318 37.4181 46.113 37.3843 47.07 36.4275C48.027 35.4707 46.124 33.2954 44.895 33.4358C43.658 33.5679 40.175 32.8644 40.494 30.1999C40.881 26.9547 36.359 27.241 35.712 25.7262C34.767 23.5183 36.337 20.8102 38.384 20.1949C41.283 19.3235 44.139 16.9583 43.916 14.3253C43.663 11.3434 42.313 8.65405 40.09 7.05649C37.777 6.1193 35.283 5.53977 32.673 5.39354C30.344 5.48566 28.296 6.0033 28.389 7.06966C28.618 9.68289 36.049 10.3616 34.802 12.8045C34.152 14.0779 29.273 15.8752 30.184 17.7705C30.777 19.003 32.236 17.9467 31.691 20.3128C31.44 21.4015 30.486 23.4472 29.018 23.5792C27.516 23.7194 26.266 19.7422 22.18 19.6118C20.248 19.55 17.527 22.6259 19.838 24.8081C21.237 26.1296 23.863 23.2198 24.638 25.4928C25.184 27.0945 24.564 30.4593 27.113 31.8655C28.043 32.3781 29.467 32.825 30.876 33.5409C28.785 33.9679 26.216 34.7648 23.181 35.9335L20.625 35.259C21.695 34.3681 23.434 33.741 22.997 31.7944C22.354 28.9345 17.388 30.0131 13.965 26.5898C12.914 25.5397 10.674 22.0528 10.684 17.8635C8.97709 21.1049 8.00589 24.7911 8.00589 28.7017C8.00589 29.9054 8.09769 31.0881 8.27429 32.2433C8.23399 32.2426 8.19419 32.2356 8.15399 32.2356C7.07589 32.2356 6.01849 32.4621 5.03859 32.8904C4.82209 31.5252 4.70659 30.1269 4.70659 28.7018C4.70659 14.0089 16.66 2.05475 31.353 2.05475C46.046 2.05456 58 14.0087 58 28.7016ZM38.012 36.4683L31.504 39.4597L31.605 38.0417L35.821 36.1385C35.219 36.0954 34.596 36.079 33.974 36.079C31.645 36.079 27.709 37.2582 23.356 38.986L9.396 35.3036C8.0914 34.9594 6.70239 35.1714 5.55969 35.8893L4.87329 36.3205C4.20319 36.7415 4.19609 37.7157 4.85999 38.1466L13.252 43.591C11.247 44.6162 9.345 45.6575 7.6685 46.6519L3.36229 44.3721C2.65889 43.9997 1.82729 43.9556 1.08849 44.2514L0.680894 44.4148C0.0730938 44.6581 -0.181605 45.381 0.139695 45.9516L2.51189 50.1663L2.51289 50.1659C1.61789 50.936 1.1079 51.5745 1.1079 52.0164C1.1079 53.3391 2.73549 53.6696 4.17009 53.6696C6.72889 53.6696 40.521 45.9324 40.521 38.9227C40.521 37.5345 39.572 36.8402 38.012 36.4683ZM23.764 50.1541L31.2 47.5346C31.528 47.4192 31.878 47.6375 31.918 47.9825L32.57 53.5565C32.733 54.9493 31.984 56.2897 30.712 56.8809L30.015 57.205C29.579 57.4074 29.062 57.2989 28.745 56.9385L23.537 51.0229C23.284 50.7348 23.402 50.2817 23.764 50.1541Z" fill="#2D9CDB"/>
</g>
</g>
<defs>
<clipPath id="clip0">
<rect width="58" height="58" fill="white"/>
</clipPath>
</defs>
</svg>
